<svg xmlns="http://www.w3.org/2000/svg" xmlns:xlink="http://www.w3.org/1999/xlink" width="98" height="97.999" viewBox="0 0 98 97.999">
  <defs>
    <clipPath id="clip-path">
      <rect id="Rectangle_460111" data-name="Rectangle 460111" width="53.535" height="46.474" transform="translate(0 0)" fill="none"/>
    </clipPath>
  </defs>
  <g id="Group_1362585" data-name="Group 1362585" transform="translate(-804.781 -1966)">
    <g id="Group_1212689" data-name="Group 1212689" transform="translate(2 -1)">
      <g id="Group_1204180" data-name="Group 1204180" transform="translate(-1 -5.016)">
        <g id="Group_1204143" data-name="Group 1204143" transform="translate(-67.331 1694.852)">
          <g id="Group_1188789" data-name="Group 1188789" transform="translate(871.113 277.164)">
            <path id="Path_1243039" data-name="Path 1243039" d="M41.05,0h0a41.05,41.05,0,0,1,0,82.1h0a41.05,41.05,0,0,1,0-82.1Z" transform="translate(7.951 7.949)" fill="#f0c467"/>
            <rect id="Rectangle_400907" data-name="Rectangle 400907" width="88.438" height="88.437" rx="44.218" transform="translate(4.782 4.781)" fill="none"/>
            <g id="Group_1098742" data-name="Group 1098742" transform="translate(0)">
              <g id="Rectangle_400898" data-name="Rectangle 400898" transform="translate(0)" fill="none" stroke="#fff" stroke-width="2" opacity="0.859">
                <rect width="98" height="97.999" rx="48.999" stroke="none"/>
                <rect x="1" y="1" width="96" height="95.999" rx="47.999" fill="none"/>
              </g>
              <g id="Rectangle_400907-2" data-name="Rectangle 400907" transform="translate(0)" fill="none" stroke="#0f1f33" stroke-linecap="round" stroke-width="2">
                <rect width="98" height="97.999" rx="48.999" stroke="none"/>
                <rect x="1" y="1" width="96" height="95.999" rx="47.999" fill="none"/>
              </g>
            </g>
          </g>
        </g>
      </g>
    </g>
    <g id="Group_1362658" data-name="Group 1362658" transform="translate(827.014 1991.765)">
      <g id="Group_1362657" data-name="Group 1362657" transform="translate(0 -0.002)" clip-path="url(#clip-path)">
        <path id="Path_1539246" data-name="Path 1539246" d="M87.214,112.13a3.192,3.192,0,0,0,2.534-.008c1.225-.5,2.459-2.085,1.982-3.479-.108-.314-.392-.36-.7-.285a4.37,4.37,0,0,0-.547.6,4.135,4.135,0,0,1-1.359,1.149c.907-2.066-.733-4.547-2.95-3.651a2.661,2.661,0,0,0-1.449,1.455,2.8,2.8,0,0,0,.182,2.416c-.346-.087-.65-.18-.989-.285a13.891,13.891,0,0,0-9.351-6.069,21.01,21.01,0,0,0-8.478.233c-.079-.745-.157-1.495-.266-2.236-.132-.89-.2-2.322-1.446-2.209-.748.171-1.442.492-2.166.735a11.246,11.246,0,0,0-4.6,2.473,7.166,7.166,0,0,0-1.886,2.985,15.149,15.149,0,0,0-3.695,1.413c-1.415-2.187-3.844-2.486-6.229-1.889-.479.12-1.14.242-1.212.837-.147,2.428.574,5.126,3.091,6.033-.091.231-.174.44-.25.669l.043.015-1.669,3.525a4.593,4.593,0,0,1-2.363.834,3.921,3.921,0,0,0-.942.166c-.916.37-1.267,1.618-1.357,2.5a6.643,6.643,0,0,0,1.142,4.782,2.631,2.631,0,0,0,1.852,1.087c.286.031.611,0,.882.034.562.061,1.138.135,1.7.209A12.085,12.085,0,0,0,52.3,129.9a15.527,15.527,0,0,0,1.841.585c-.953,1.547-2.071,2.973-3.1,4.472-.27.4-.738,1.045-.147,1.426a2.671,2.671,0,0,0,1.846-.087c-.182.932-.151,1.57,1.042,1.608a4.2,4.2,0,0,0,2.2-.92,21.139,21.139,0,0,0,3.732-3.358c.349.627,1.036,1.575,1.448,2.238l1.241,2.012c.272.441.531.877.833,1.295.232.321.56.632.967.392.383-.227.57-1.02.687-1.434.554.294,1.708.961,2.024.033.578-1.695-.546-4.287-.965-5.985a27.115,27.115,0,0,0,3.992-.445,23.943,23.943,0,0,0,4.82-1.413c.94.9,2.088,2.008,2.918,2.991q.683.817,1.347,1.649c.355.441,1.157,1.751,1.8.992a2.693,2.693,0,0,0,.4-1.345c.561.289,1.45.826,1.825-.012a4.207,4.207,0,0,0-.242-2.952c-.44-1.164-1.15-2.375-1.614-3.507a31.621,31.621,0,0,1,3.094,1.2c.544.3,1.168.669,1.687,1.009,1.682,1.1,2.807,1.314,2.243-1.193.384.068,1.11.208,1.416-.051.908-.8-.175-2.291-.67-3.014a19.561,19.561,0,0,0-2.086-2.449,6.256,6.256,0,0,1-1.7-2.1,13.011,13.011,0,0,0-.012-8.944,3.593,3.593,0,0,0,2.035-.465" transform="translate(-39.348 -95.51)" fill="#181717"/>
        <path id="Path_1539247" data-name="Path 1539247" d="M135.169,117.958a.522.522,0,0,1,.375.456,16.358,16.358,0,0,1,.264,1.864c.257,2.172.358,4.341-.751,6.327a4.9,4.9,0,0,1-2.433,2.259c-.343.137-.793.141-1.149.253a.558.558,0,0,0-.381.3.457.457,0,0,0,.52.433,4.615,4.615,0,0,0,3.032-1.407,8.056,8.056,0,0,0,2.151-5.971,20.737,20.737,0,0,1,7.088-.451,13.6,13.6,0,0,1,9.3,4.872,12.179,12.179,0,0,1,2.25,10.842,9.224,9.224,0,0,0-.346,1.176c-.013.969,1.147,1.908,1.765,2.539q.567.575,1.091,1.189a39.66,39.66,0,0,1-2.589,3.425c-2.188-1.134-3.88-1.019-5.773-2.838q-.237-.226-.456-.471c-.119-.135-.723-.945-.839-.912-1.249.347,1.012,2.231,1.362,2.536a9.929,9.929,0,0,1-1.166.908,22.315,22.315,0,0,1-9.373,3.287,25.056,25.056,0,0,1-6.764.025c.2-.337.4-.658.621-1.012.206-.32.44-.9-.135-.974-.215,0-.423.387-.509.536a23.084,23.084,0,0,1-3.577,4.528c-.416.425-.891.806-1.312,1.234-.112-.1-.232-.22-.337-.328a17.521,17.521,0,0,0-2.859-2.32c.21-.4.5-.767.747-1.145a24.886,24.886,0,0,0,2.206-3.784.354.354,0,0,0-.15-.275.277.277,0,0,0-.224-.064.6.6,0,0,0-.342.232,4.512,4.512,0,0,0-.388.635,12.139,12.139,0,0,1-.8,1.288l-.035.046c-2.338-.612-4.991-1.644-6.653-3.483-.24-.266-.47-.568-.726-.815l-.026-.025c-.269-.067-1.118-.152-1.42-.19a3.464,3.464,0,0,0,.675-2.317,7,7,0,0,0-2.179-4.9,5.553,5.553,0,0,0,1.9-.725,1.864,1.864,0,0,0,2.77.168c1.352-1.069,1.707-4.433-.574-4.569l.328-.69c.522.018,1.732-.382,1.464-1.047-.269-.278-.76.181-1.072.309a9.477,9.477,0,0,1,4.587-4.019c.611-.259,1.251-.449,1.884-.646-.041.352-.266,1.365.319,1.341.31-.012.4-.958.435-1.173a6.965,6.965,0,0,1,4.2-4.993c1.02-.443,2.1-.742,3.128-1.156a7.2,7.2,0,0,1,.877-.3" transform="translate(-110.03 -112.935)" fill="#fac6c1"/>
        <path id="Path_1539248" data-name="Path 1539248" d="M424.108,164.189c-.235.123-.483.126-.615-.137s.041-.723.1-.977a6.52,6.52,0,0,1,3.269-4.238,20.086,20.086,0,0,1,2.453-1.114.415.415,0,0,1,.51.58,11.385,11.385,0,0,1,.107,4.217,4.432,4.432,0,0,1-3.244,3.648c-.649.116-.818-.384-1.149-.822a4.526,4.526,0,0,0-1.433-1.157" transform="translate(-405.416 -150.981)" fill="#5e4341"/>
        <path id="Path_1539249" data-name="Path 1539249" d="M424.108,164.189c-.235.123-.483.126-.615-.137s.041-.723.1-.977a6.52,6.52,0,0,1,3.269-4.238,20.086,20.086,0,0,1,2.453-1.114.415.415,0,0,1,.51.58l-.033.019c-.585.328-1.506.66-2.144.982a5.9,5.9,0,0,0-3.247,3.784c-.068.236-.213.917-.3,1.1" transform="translate(-405.416 -150.981)" fill="#181717"/>
        <path id="Path_1539250" data-name="Path 1539250" d="M227.477,658.331a3.611,3.611,0,0,1,3.034,1.211c.543.583,1.3,2.047.309,2.566a3.287,3.287,0,0,1-1.581.025,4.919,4.919,0,0,0-.846-.016c-.649.061-1.177.316-1.765-.131a3.2,3.2,0,0,1-1.112-1.851,1.343,1.343,0,0,1,.278-1.039,2.488,2.488,0,0,1,1.683-.766" transform="translate(-215.9 -630.278)" fill="#181717"/>
        <path id="Path_1539251" data-name="Path 1539251" d="M275.623,700.031c1.252-.065,1.85,1.693.633,1.4a5.506,5.506,0,0,0-.833-.1,8.054,8.054,0,0,0-1.461.1,1.887,1.887,0,0,1,1.661-1.4" transform="translate(-262.297 -670.222)" fill="#dc8382"/>
        <path id="Path_1539252" data-name="Path 1539252" d="M321.9,349.46c.353-.012.6.363.814.632.242.3,2.181.684,1.14,1.221-.75.017-2.915-1.131-1.954-1.853" transform="translate(-307.96 -334.58)" fill="#181717"/>
        <path id="Path_1539253" data-name="Path 1539253" d="M143.645,246.663a4.246,4.246,0,0,1,3.362,1.1,3.28,3.28,0,0,1,.508.722,11.56,11.56,0,0,0-2.8,2.944c-.183.279-.348.559-.519.845-2.263-.914-2.531-3.01-2.628-5.173a9.013,9.013,0,0,1,2.081-.435" transform="translate(-135.536 -236.142)" fill="#5e4341"/>
        <path id="Path_1539254" data-name="Path 1539254" d="M60.282,535.6c2.008-.108,4.124,5.58,1.867,6.782-1.031.292-1.676-.567-2.145-1.356-.674-1.134-1.1-4.7.278-5.425" transform="translate(-56.846 -512.789)" fill="#fac6c1"/>
        <path id="Path_1539255" data-name="Path 1539255" d="M80.786,582.631a3.02,3.02,0,0,1-.338-2.158c.206-.835.932-.334,1.173.191a2.578,2.578,0,0,1,.245,2.1c-.316.574-.794.294-1.08-.134" transform="translate(-76.953 -555.331)" fill="#5e4341"/>
        <path id="Path_1539256" data-name="Path 1539256" d="M80.786,582.631a3.02,3.02,0,0,1-.338-2.158c.206-.835.932-.334,1.173.191a2.578,2.578,0,0,1,.245,2.1l-.047-.012a7.1,7.1,0,0,1-.023-.772c.023-.392-.371-1.812-.919-1.739-.309.243-.252,1.345-.165,1.7.053.217.167.495.074.684" transform="translate(-76.953 -555.331)" fill="#181717"/>
        <path id="Path_1539257" data-name="Path 1539257" d="M855.141,749.7c.562.169.682.666.926,1.139.361.7.684,1.417.988,2.144a21.119,21.119,0,0,1-3.218,2.09l-.368-.425c-.724-.817-1.576-1.629-2.342-2.41a15.088,15.088,0,0,0,4.014-2.538" transform="translate(-814.886 -717.783)" fill="#fac6c1"/>
        <path id="Path_1539258" data-name="Path 1539258" d="M1061.518,271.046c1.54.051,2.055,1.539,1.55,2.807a4.851,4.851,0,0,1-.525.939c1.29.478,2.608-.608,3.245-1.645a2.759,2.759,0,0,1-1.721,2.333,3,3,0,0,1-2.284-.118,3.876,3.876,0,0,1-2.251.5l-.467-.953a2.983,2.983,0,0,0,.785.149c.171-.009,1.206.06.805-.333a2.287,2.287,0,0,1-.354-2.979,1.829,1.829,0,0,1,1.218-.7" transform="translate(-1013.97 -259.505)" fill="#fac6c1"/>
        <path id="Path_1539259" data-name="Path 1539259" d="M1097.463,292.528c1.267-.121,1.435,1.175.808,2.013a1.846,1.846,0,0,1-.389.365c-.648.288-1.94-1.744-.419-2.377" transform="translate(-1050.052 -280.065)" fill="#181717"/>
        <path id="Path_1539260" data-name="Path 1539260" d="M1113.376,307.947a.7.7,0,0,1,.137.034.75.75,0,0,1,.2.315,2.034,2.034,0,0,1-.277.594c-.182-.059-.273-.4-.259-.576a.423.423,0,0,1,.195-.367" transform="translate(-1065.781 -294.835)" fill="#fffefd"/>
        <path id="Path_1539261" data-name="Path 1539261" d="M492.159,854.967a23.468,23.468,0,0,0,3.97.282c.222.731.444,1.511.691,2.23a16.974,16.974,0,0,1-1.579.78,18.918,18.918,0,0,1-2.056.764c-.511-.9-1.32-2.092-1.9-2.969.271-.3.638-.761.878-1.087" transform="translate(-470.362 -818.563)" fill="#fac6c1"/>
        <path id="Path_1539262" data-name="Path 1539262" d="M191.637,454.656c.907.051.873,1.444-.038,1.8l-.02,0c-1-.083-.85-1.551.058-1.8" transform="translate(-182.764 -435.297)" fill="#181717"/>
        <path id="Path_1539263" data-name="Path 1539263" d="M287.653,891.358c.091.046.39.261.5.334a13.175,13.175,0,0,1,2.468,2.153,4.432,4.432,0,0,1-2.359,1.142c-.038-.01-.124-.03-.147-.064-.234-.423.238-1.131.186-1.584-.07-.613-.779-.132-1.067-.021a8.081,8.081,0,0,1-1.131.327c.365-.652,1.107-1.66,1.555-2.288" transform="translate(-273.916 -853.404)" fill="#5e4341"/>
        <path id="Path_1539264" data-name="Path 1539264" d="M1083.435,712.355a7.361,7.361,0,0,1,1.175,1.743c.09.187.285.609.2.805-.072.16-1.375-.268-1.655-.166-.53.193.2,1.541,0,1.991l-.079,0a17.121,17.121,0,0,1-2.067-1.212c.23-.239.53-.629.741-.9q.875-1.108,1.684-2.265" transform="translate(-1034.981 -682.023)" fill="#5e4341"/>
        <path id="Path_1539265" data-name="Path 1539265" d="M931.054,843.7a3.833,3.833,0,0,1,.412.995,3.987,3.987,0,0,1,.112,1.8,8.889,8.889,0,0,1-1.045-.516c-1.289-.808-.654,1.3-1.061,1.43a19.693,19.693,0,0,1-1.38-1.708,21.753,21.753,0,0,0,2.962-2" transform="translate(-888.574 -807.777)" fill="#5e4341"/>
        <path id="Path_1539266" data-name="Path 1539266" d="M550.315,933.02c.225.407.545,2.1.224,2.452-.51.246-1.609-1.373-1.941-.278-.106.351-.131.919-.4,1.192-.377-.515-.853-1.365-1.189-1.932a23.206,23.206,0,0,0,3.31-1.434" transform="translate(-523.714 -893.292)" fill="#5e4341"/>
        <path id="Path_1539267" data-name="Path 1539267" d="M851.317,935.081a.479.479,0,0,1,.483.129c1.187,1.376,2.376,2.746,3.615,4.077.26.28.232.49-.068.708-.456.039-.569-.23-.862-.546-1.1-1.2-2.172-2.424-3.235-3.656-.251-.29-.223-.477.068-.712" transform="translate(-814.84 -895.253)" fill="#181717"/>
        <path id="Path_1539268" data-name="Path 1539268" d="M957.916,65.942c.236.016.539.155.482.452a1.4,1.4,0,0,1-.269.377q-1.652,1.7-3.293,3.408a3.842,3.842,0,0,1-.623.587c-.293,0-.522-.135-.452-.466a.658.658,0,0,1,.173-.285c.681-.766,1.413-1.487,2.12-2.23a26.181,26.181,0,0,1,1.862-1.844" transform="translate(-913.138 -63.134)" fill="#181717"/>
        <path id="Path_1539269" data-name="Path 1539269" d="M698.875,0c.293.051.33.107.456.371l-.893,3.467c-.109.422-.178.844-.3,1.258-.051.173-.168.215-.322.287-.73-.064-.341-.9-.224-1.383q.214-.891.442-1.779c.159-.629.315-1.309.508-1.93.054-.172.18-.228.332-.291" transform="translate(-667.69 0.002)" fill="#181717"/>
        <path id="Path_1539270" data-name="Path 1539270" d="M242.313,77.11a.459.459,0,0,1,.411.122c.954,1.126,1.859,2.306,2.741,3.488.228.3.1.478-.213.624a.488.488,0,0,1-.469-.233c-.861-1.1-1.726-2.191-2.566-3.3-.251-.332-.257-.472.095-.7" transform="translate(-231.733 -73.823)" fill="#181717"/>
        <path id="Path_1539271" data-name="Path 1539271" d="M1146.227,551.427l.146.025c1.237.211,2.695.5,3.939.768.412.087.413.566-.053.779a11.577,11.577,0,0,1-1.311-.237c-.93-.2-1.915-.319-2.83-.567-.341-.092-.351-.593.109-.767" transform="translate(-1097.081 -527.947)" fill="#181717"/>
        <path id="Path_1539272" data-name="Path 1539272" d="M.269,390.615a1.148,1.148,0,0,1,.173-.006,33.634,33.634,0,0,1,3.9,1.6.329.329,0,0,1,.071.242.561.561,0,0,1-.281.377,1.459,1.459,0,0,1-.668-.179c-1.029-.435-2.082-.812-3.116-1.235a.579.579,0,0,1-.313-.264c-.1-.246.055-.4.237-.536" transform="translate(0 -373.976)" fill="#181717"/>
        <path id="Path_1539273" data-name="Path 1539273" d="M124.791,867.687c.447.124.536.487.145.768l-2.418,1.742a5.928,5.928,0,0,1-.947.625.567.567,0,0,1-.355-.227.387.387,0,0,1-.01-.345,29.52,29.52,0,0,1,3.585-2.562" transform="translate(-116.011 -830.741)" fill="#181717"/>
        <path id="Path_1539274" data-name="Path 1539274" d="M442.521,997.588c.249.048.465.181.4.465-.251,1.1-.582,2.208-.906,3.295-.041.136-.213.2-.328.237-.293-.031-.462-.161-.4-.485.05-.254.124-.506.193-.756.231-.83.456-1.665.721-2.484.049-.152.188-.211.322-.271" transform="translate(-422.485 -955.111)" fill="#181717"/>
        <path id="Path_1539275" data-name="Path 1539275" d="M154.706,404.11s-1.4,3.637-2.285,4.59a.723.723,0,0,0,.333,1.3H154l1.78-.879.879-3.121-.923-1.894Z" transform="translate(-145.623 -386.903)" fill="#fac6c1"/>
        <path id="Path_1539276" data-name="Path 1539276" d="M286,459.9c1.128-.02,1.2,1.683.14,2.045-.994.033-1.285-1.593-.14-2.045" transform="translate(-273.113 -440.317)" fill="#181717"/>
        <path id="Path_1539277" data-name="Path 1539277" d="M187.228,435.875c1.128-.02,1.2,1.683.14,2.045-.994.033-1.285-1.594-.14-2.045" transform="translate(-178.547 -417.315)" fill="#181717"/>
      </g>
    </g>
  </g>
</svg>
