<svg xmlns="http://www.w3.org/2000/svg" width="98" height="97.998" viewBox="0 0 98 97.998">
  <g id="Group_1359447" data-name="Group 1359447" transform="translate(-804.781 -1966)">
    <g id="Group_1212689" data-name="Group 1212689" transform="translate(2 -1)">
      <g id="Group_1204180" data-name="Group 1204180" transform="translate(-1 -5.016)">
        <g id="Group_1204143" data-name="Group 1204143" transform="translate(-67.331 1694.852)">
          <g id="Group_1188789" data-name="Group 1188789" transform="translate(871.113 277.164)">
            <path id="Path_1243039" data-name="Path 1243039" d="M41.05,0h0a41.05,41.05,0,0,1,0,82.1h0a41.05,41.05,0,0,1,0-82.1Z" transform="translate(7.951 7.949)" fill="#f0c467"/>
            <rect id="Rectangle_400907" data-name="Rectangle 400907" width="88.438" height="88.437" rx="44.218" transform="translate(4.782 4.781)" fill="none"/>
            <g id="Group_1098742" data-name="Group 1098742" transform="translate(0)">
              <g id="Rectangle_400898" data-name="Rectangle 400898" transform="translate(0)" fill="none" stroke="#fff" stroke-width="2" opacity="0.859">
                <rect width="98" height="97.999" rx="48.999" stroke="none"/>
                <rect x="1" y="1" width="96" height="95.999" rx="47.999" fill="none"/>
              </g>
              <g id="Rectangle_400907-2" data-name="Rectangle 400907" transform="translate(0)" fill="none" stroke="#0f1f33" stroke-linecap="round" stroke-width="2">
                <rect width="98" height="97.999" rx="48.999" stroke="none"/>
                <rect x="1" y="1" width="96" height="95.999" rx="47.999" fill="none"/>
              </g>
            </g>
          </g>
        </g>
      </g>
    </g>
    <g id="Group_1362628" data-name="Group 1362628" transform="translate(7382.67 3659.751)">
      <path id="Path_1538874" data-name="Path 1538874" d="M44,62.227a2.03,2.03,0,0,1,2.05,2.05,2.355,2.355,0,0,1-.574,1.476A1.858,1.858,0,0,1,44,66.328H7.1a2.03,2.03,0,0,1-2.05-2.051A2.354,2.354,0,0,1,5.621,62.8,1.975,1.975,0,0,1,7.1,62.227H44Z" transform="translate(-6553.946 -1687.954)" fill="#60534a"/>
      <path id="Path_1538875" data-name="Path 1538875" d="M41.32,61.508h-28.7a3.166,3.166,0,0,1,.9-2.214,3.025,3.025,0,0,1,2.214-.9H38.368a3.085,3.085,0,0,1,2.953,3.116" transform="translate(-6555.366 -1687.235)" fill="#73665c"/>
      <rect id="Rectangle_460107" data-name="Rectangle 460107" width="4.101" height="9.267" transform="translate(-6530.447 -1638.028)" fill="#a28671"/>
      <rect id="Rectangle_460108" data-name="Rectangle 460108" width="4.101" height="4.101" transform="translate(-6530.447 -1652.38)" fill="#a28671"/>
      <path id="Path_1538876" data-name="Path 1538876" d="M31.858,12.5v3.117h-4.1V12.5a2.05,2.05,0,0,1,4.1,0" transform="translate(-6558.204 -1678.246)" fill="#a28671"/>
      <path id="Path_1538877" data-name="Path 1538877" d="M49.522,21.891l-9.185,5.167H12.617V16.807H40.336Z" transform="translate(-6555.366 -1679.438)" fill="#febe76"/>
      <path id="Path_1538878" data-name="Path 1538878" d="M38.217,34.471V44.722H10.5L1.312,39.555,10.5,34.471H38.217Z" transform="translate(-6553.246 -1682.75)" fill="#e6be94"/>
      <path id="Path_1538879" data-name="Path 1538879" d="M43.755,67.048H6.851a3.116,3.116,0,0,1-3.117-3.116,3.325,3.325,0,0,1,.9-2.215,3.166,3.166,0,0,1,2.214-.9h4.1a1.066,1.066,0,0,1,0,2.132h-4.1a1,1,0,0,0-.738.328,1.22,1.22,0,0,0-.328.738A1.086,1.086,0,0,0,6.851,65.08h36.9a1,1,0,0,0,.738-.328,1.04,1.04,0,0,0,.328-.739,1.086,1.086,0,0,0-1.066-1.066h-4.1a1.066,1.066,0,0,1,0-2.132h4.1a3.115,3.115,0,0,1,3.116,3.117,3.08,3.08,0,0,1-3.116,3.116" transform="translate(-6553.7 -1687.689)"/>
      <path id="Path_1538880" data-name="Path 1538880" d="M41.074,62.228h-28.7A1.086,1.086,0,0,1,11.3,61.162a3.847,3.847,0,0,1,1.231-2.871,4.176,4.176,0,0,1,2.87-1.23h9.267a1.066,1.066,0,0,1,0,2.133H15.487a2.358,2.358,0,0,0-1.476.574,1.437,1.437,0,0,0-.327.41H39.762a2.1,2.1,0,0,0-1.8-1.066H28.772a1.066,1.066,0,0,1,0-2.133H38.04a4.06,4.06,0,0,1,4.1,4.1,1.1,1.1,0,0,1-1.065,1.148" transform="translate(-6555.12 -1686.97)"/>
      <path id="Path_1538881" data-name="Path 1538881" d="M31.612,57.092h-4.1a1.085,1.085,0,0,1-1.065-1.066V46.841a1.066,1.066,0,1,1,2.132,0v8.2h2.05v-8.2a1.066,1.066,0,1,1,2.132,0v9.185a1.225,1.225,0,0,1-1.148,1.066" transform="translate(-6557.958 -1684.869)"/>
      <path id="Path_1538882" data-name="Path 1538882" d="M31.574,16.353a1.085,1.085,0,0,1-1.065-1.066V12.252a1.066,1.066,0,0,0-2.133,0v3.117a1.066,1.066,0,0,1-2.133,0V12.252a3.116,3.116,0,0,1,6.233,0v3.117c.164.492-.327.984-.9.984" transform="translate(-6557.92 -1678)"/>
      <path id="Path_1538883" data-name="Path 1538883" d="M32.558,34.244a1.085,1.085,0,0,1-1.065-1.066v-4.1a1.066,1.066,0,1,1,2.131,0v4.1a1.085,1.085,0,0,1-1.066,1.066" transform="translate(-6558.905 -1681.539)"/>
      <path id="Path_1538884" data-name="Path 1538884" d="M27.511,34.244a1.085,1.085,0,0,1-1.066-1.066v-4.1a1.066,1.066,0,1,1,2.132,0v4.1a1.085,1.085,0,0,1-1.066,1.066" transform="translate(-6557.958 -1681.539)"/>
      <path id="Path_1538885" data-name="Path 1538885" d="M40.091,27.8H12.372a1.086,1.086,0,0,1-1.067-1.066V16.561a1.086,1.086,0,0,1,1.067-1.066H40.091a1.167,1.167,0,0,1,.492.164l9.267,5.085a1.072,1.072,0,0,1,0,1.8l-9.267,5.167c-.164,0-.328.082-.492.082m-26.654-2.05H39.844l7.382-4.1-7.382-4.1H13.437Z" transform="translate(-6555.12 -1679.192)"/>
      <path id="Path_1538886" data-name="Path 1538886" d="M37.971,45.44H10.251a1.16,1.16,0,0,1-.492-.164L.492,40.11C.164,40.028,0,39.7,0,39.29a.942.942,0,0,1,.492-.9L9.76,33.221a1.159,1.159,0,0,1,.492-.164H37.971a1.085,1.085,0,0,1,1.066,1.066V44.374a1.216,1.216,0,0,1-1.066,1.066M10.5,43.39H36.9v-8.2H10.5l-7.381,4.1Z" transform="translate(-6553 -1682.485)"/>
      <path id="Path_1538887" data-name="Path 1538887" d="M27.668,22.573H17.418a1.066,1.066,0,1,1,0-2.132H27.668a1.066,1.066,0,0,1,0,2.132" transform="translate(-6556.066 -1680.119)"/>
      <path id="Path_1538888" data-name="Path 1538888" d="M32.924,26.408h-4.1a1.066,1.066,0,1,1,0-2.132h4.1a1.085,1.085,0,0,1,1.066,1.066,1.216,1.216,0,0,1-1.066,1.066" transform="translate(-6558.204 -1680.839)"/>
      <path id="Path_1538889" data-name="Path 1538889" d="M39.075,44.072H28.823a1.066,1.066,0,1,1,0-2.132H39.075a1.085,1.085,0,0,1,1.064,1.066,1.144,1.144,0,0,1-1.064,1.066" transform="translate(-6558.204 -1684.15)"/>
      <path id="Path_1538890" data-name="Path 1538890" d="M29.088,40.255h-4.1a1.085,1.085,0,0,1-1.065-1.066,1.017,1.017,0,0,1,1.065-.985h4.1a1.086,1.086,0,0,1,1.066,1.067,1.016,1.016,0,0,1-1.066.984" transform="translate(-6557.485 -1683.45)"/>
    </g>
  </g>
</svg>
